<svg viewBox="0 0 16 16" width="16" height="16" fill="context-fill" fill-opacity="context-fill-opacity"
  xmlns="http://www.w3.org/2000/svg">
  <path fill-rule="evenodd" clip-rule="evenodd"
    d="M14 2C14.5304 2 15.0391 2.21071 15.4142 2.58579C15.7893 2.96086 16 3.46957 16 4V12C16 12.5304 15.7893 13.0391 15.4142 13.4142C15.0391 13.7893 14.5304 14 14 14H2C1.46957 14 0.960859 13.7893 0.585786 13.4142C0.210714 13.0391 0 12.5304 0 12V4C0 3.46957 0.210714 2.96086 0.585786 2.58579C0.960859 2.21071 1.46957 2 2 2H14ZM2 12.5C1.86739 12.5 1.74021 12.4473 1.64645 12.3536C1.55268 12.2598 1.5 12.1326 1.5 12V4C1.5 3.86739 1.55268 3.74021 1.64645 3.64645C1.74021 3.55268 1.86739 3.5 2 3.5H14L2 12.5Z" />
  <path
    d="M8.30957 3.96094C8.41068 3.96843 8.50994 3.98012 8.60742 3.99512L8.72949 4.01367L8.62891 4.08496C8.33197 4.29499 8.094 4.56849 7.91602 4.90625C7.73843 5.24331 7.65039 5.60789 7.65039 6C7.65039 6.65356 7.87778 7.20786 8.33496 7.66504C8.79214 8.12222 9.34644 8.34961 10 8.34961C10.3996 8.34961 10.7656 8.26133 11.0986 8.08398C11.4328 7.90603 11.7049 7.66819 11.915 7.37109L11.9863 7.27051L12.0049 7.39258C12.0199 7.49006 12.0316 7.58932 12.0391 7.69043C12.0466 7.7917 12.0498 7.89511 12.0498 8C12.0498 9.12422 11.6564 10.0819 10.8691 10.8691C10.0819 11.6564 9.12422 12.0498 8 12.0498C6.87578 12.0498 5.91812 11.6564 5.13086 10.8691C4.3436 10.0819 3.9502 9.12422 3.9502 8C3.9502 6.87578 4.3436 5.91812 5.13086 5.13086C5.91812 4.3436 6.87578 3.9502 8 3.9502C8.10489 3.9502 8.2083 3.95344 8.30957 3.96094Z"
    fill="#7DB1FF" stroke="black" stroke-width="0.1" />
</svg>