<svg viewBox="0 0 16 16" width="16" height="16" fill="context-fill" fill-opacity="context-fill-opacity"
  xmlns="http://www.w3.org/2000/svg">
  <path fill-rule="evenodd" clip-rule="evenodd"
    d="M14 2C14.5304 2 15.0391 2.21071 15.4142 2.58579C15.7893 2.96086 16 3.46957 16 4V12C16 12.5304 15.7893 13.0391 15.4142 13.4142C15.0391 13.7893 14.5304 14 14 14H2C1.46957 14 0.960859 13.7893 0.585786 13.4142C0.210714 13.0391 0 12.5304 0 12V4C0 3.46957 0.210714 2.96086 0.585786 2.58579C0.960859 2.21071 1.46957 2 2 2H14ZM2 12.5C1.86739 12.5 1.74021 12.4473 1.64645 12.3536C1.55268 12.2598 1.5 12.1326 1.5 12V4C1.5 3.86739 1.55268 3.74021 1.64645 3.64645C1.74021 3.55268 1.86739 3.5 2 3.5H14L2 12.5Z" />
  <path
    d="M8.41406 10.4951V12.0498H7.58594V10.4951H8.41406ZM10.0713 9.50977L10.9893 10.3916L11.0254 10.4258L10.9902 10.4619L10.4727 10.998L10.4365 11.0361L10.4004 10.998L9.51855 10.0801L9.48535 10.0449L9.51855 10.0107L10 9.51074L10.0352 9.47461L10.0713 9.50977ZM5.98926 9.51855L6.48926 10L6.52539 10.0352L6.49023 10.0713L5.6084 10.9893L5.57422 11.0254L5.53809 10.9902L5.00195 10.4727L4.96387 10.4365L5.00195 10.4004L5.91992 9.51855L5.95508 9.48535L5.98926 9.51855ZM8 6.13184C8.51624 6.13184 8.95733 6.31475 9.32129 6.67871C9.68525 7.04267 9.86816 7.48376 9.86816 8C9.86816 8.51624 9.68525 8.95733 9.32129 9.32129C8.95733 9.68525 8.51624 9.86816 8 9.86816C7.48376 9.86816 7.04267 9.68525 6.67871 9.32129C6.31475 8.95733 6.13184 8.51624 6.13184 8C6.13184 7.48376 6.31475 7.04267 6.67871 6.67871C7.04267 6.31475 7.48376 6.13184 8 6.13184ZM5.50488 7.58594V8.41406H3.9502V7.58594H5.50488ZM12.0498 7.58594V8.41406H10.4951V7.58594H12.0498ZM5.59961 5.00195L6.47266 5.91113L6.50488 5.94531L6.47266 5.97949L6 6.48828L5.96582 6.52539L5.92871 6.49023L5.01074 5.6084L4.97461 5.57422L5.00977 5.53809L5.52734 5.00195L5.56348 4.96387L5.59961 5.00195ZM10.4619 5.00977L10.998 5.52734L11.0361 5.56348L10.998 5.59961L10.0889 6.47266L10.0547 6.50488L10.0205 6.47266L9.51172 6L9.47461 5.96582L9.50977 5.92871L10.3916 5.01074L10.4258 4.97461L10.4619 5.00977ZM8.41406 3.9502V5.50488H7.58594V3.9502H8.41406Z"
    fill="#EDC996" stroke="black" stroke-width="0.1" />
</svg>